<?xml version="1.0" encoding="UTF-8"?><svg xmlns="http://www.w3.org/2000/svg" viewBox="0 0 136.8046 67.2981"><defs><style>.e{fill:#fff;}</style></defs><g id="a"/><g id="b"><g id="c"><g id="d"><path class="e" d="M65.6478,32.9924c-3.9269-1.1479-9.2459-1.5104-9.2459-1.5104,0,0-4.7703-.4229-4.8306,2.9603-.0604,3.3832,1.5707,2.9603,5.256,3.8061,3.6852,.8458,6.5517,2.3011,12.5494,2.238,0,0,.1979-6.3463-3.7289-7.4941Z"/><path class="e" d="M58.6602,49.3702c-2.0219,0-3.661,1.6391-3.661,3.661s1.6391,3.6611,3.661,3.6611,3.6611-1.6391,3.6611-3.6611-1.6391-3.661-3.6611-3.661Z"/><polygon class="e" points="75.9819 51.7225 75.9819 55.7225 91.8603 55.7225 107.7382 55.7225 107.7382 51.7225 91.8603 51.7225 75.9819 51.7225"/><path class="e" d="M136.8046,35.1062c0-5.4335-5.1322-10.0551-8.442-12.4738,3.1069-.5392,5.2476-1.6143,3.788-3.9382-1.6817-2.6778-7.0906-1.59-7.0906-1.59l-.2264,1.2157c-4.6199-9.0704-9.0925-12.9002-9.3024-13.0751l-.4341-.3633-.5601-.082c-10.13-1.4829-21.7629-1.2623-22.6754-1.2395-.8911-.0232-12.5374-.2451-22.6786,1.2395l-.5601,.082-.4341,.3633c-.21,.1749-4.6825,4.0046-9.3023,13.0749l-.2264-1.2155s-5.4089-1.0878-7.0906,1.59c-1.4594,2.3239,.6811,3.399,3.7879,3.9382-3.3098,2.4187-8.442,7.0403-8.442,12.4738,0,6.7705,.8477,17.623,.8804,18.0303,.0804,1.5281,.6392,3.7203,1.9971,5.5641v5.8364c0,1.5249,1.2362,2.7611,2.7611,2.7611h7.6956c1.5249,0,2.7611-1.2362,2.7611-2.7611v-1.8593c4.558,.3091,11.3806,.6429,19.622,.6423,2.9118,0,6.0021-.0419,9.2275-.1409,3.2264,.0991,6.3148,.1409,9.2275,.1409,8.2407,0,15.0635-.3337,19.6217-.6427v1.8596c0,1.5249,1.2361,2.7611,2.7611,2.7611h7.6956c1.5249,0,2.761-1.2362,2.761-2.7611v-5.83c1.357-1.837,1.9149-4.0159,1.9936-5.5188,.0361-.459,.8838-11.3115,.8838-18.082Zm-44.8823,24.0732l-.062,1.999-.062-1.999c-19.8398,.6143-34.3691-.9746-34.5132-.9902l-.2222-.0127c-4.6963,0-5.2168-4.3838-5.2764-5.3027-.0083-.1104-.8711-11.1553-.8711-17.7676,0-4.5791,6.5996-9.3457,9.1426-10.7959l.5718-.3262,.2666-.5996c3.9731-8.9395,8.2017-13.4727,9.4756-14.7139,9.8545-1.3652,21.3218-1.1113,21.4414-1.1113l.0469-1.9886,.0469,1.9886c.1182,.001,11.585-.2529,21.4404,1.1104,1.2808,1.248,5.5059,5.7812,9.4761,14.7148l.2681,.6006,.5703,.3252c2.543,1.4502,9.1426,6.2168,9.1426,10.7959,0,6.6123-.8628,17.6572-.874,17.8086-.0566,.8779-.5771,5.2617-5.2734,5.2617l-.2222,.0127c-.1445,.0156-14.6782,1.6045-34.5127,.9902Z"/><path class="e" d="M132.149,34.4424c-.0604-3.3832-4.8306-2.9603-4.8306-2.9603,0,0-5.319,.3625-9.2459,1.5104-3.9269,1.1478-3.729,7.4941-3.729,7.4941,5.9977,.0631,8.8642-1.3923,12.5495-2.238,3.6852-.8458,5.3165-.4229,5.256-3.8061Z"/><path class="e" d="M128.7211,53.0312c0-2.0219-1.6391-3.661-3.6611-3.661s-3.6611,1.6391-3.6611,3.661,1.6391,3.6611,3.6611,3.6611,3.6611-1.6391,3.6611-3.6611Z"/><path class="e" d="M108.8178,31.4842l-.2275-.0537h-33.4604l-.2275,.0537c-2.1279,.5059-3.1777,1.6641-3.6841,2.5479-.981,1.7109-.6284,3.5264-.4912,4.0625l1.4077,7.3877h39.4507l1.4077-7.3877c.1372-.5361,.4897-2.3516-.4912-4.0625-.5063-.8838-1.5562-2.042-3.6841-2.5479Zm.312,5.5781l-.854,4.4199h-32.8315l-.8018-4.21-.0425-.1777c-.0444-.167-.1216-.7236,.0957-1.0859,.1753-.293,.5688-.4717,.9272-.5781h32.4741c.3584,.1064,.752,.2852,.9272,.5781,.2173,.3623,.1401,.9189,.1055,1.0537Z"/><path class="e" d="M120.7095,22.8448c-.7949-5.7982-7.947-12.8452-7.947-12.8452-7.4038-1.4272-20.9024-1.338-20.9024-1.338,0,0-13.4986-.0892-20.9024,1.338,0,0-7.1521,7.0471-7.947,12.8452,0,0,17.6387-1.4272,28.8494-1.6057,11.2106,.1784,28.8494,1.6057,28.8494,1.6057Z"/><path class="e" d="M14.0427,22.0827c-2.9438-.8605-6.9312-1.1323-6.9312-1.1323,0,0-3.576-.317-3.6213,2.2192-.0453,2.5363,1.1776,2.2192,3.9402,2.8533,2.7627,.6341,4.9115,1.7251,9.4078,1.6778,0,0,.1484-4.7575-2.7955-5.618Z"/><path class="e" d="M6.06,37.105c0,1.5158,1.2288,2.7446,2.7445,2.7446s2.7446-1.2288,2.7446-2.7446-1.2288-2.7445-2.7446-2.7445-2.7445,1.2288-2.7445,2.7445Z"/><path class="e" d="M21.5208,23.9104h12.1724v-2.9987h-12.5421l-.1706,.0403c-1.5952,.3792-2.3822,1.2475-2.7618,1.91-.7354,1.2826-.4711,2.6436-.3683,3.0455l1.0554,5.5382h14.7874v-2.9986h-12.3064l-.6011-3.1561-.0318-.1332c-.0333-.1252-.0912-.5425,.0717-.8141,.1314-.2196,.4265-.3536,.6951-.4333Z"/><path class="e" d="M33.693,3.843s-10.1193-.0669-15.6696,1.0031c0,0-5.3616,5.2828-5.9575,9.6295,0,0,13.223-1.0699,21.6271-1.2037V3.843Z"/><rect class="e" x="21.7898" y="36.1238" width="11.9034" height="2.9986"/><path class="e" d="M33.7374,41.712l-.04,1.5v.08l-.001,.0278-.0498-1.6057c-14.873,.4605-25.7651-.7307-25.873-.7423l-.1666-.0095c-3.5206,0-3.9108-3.2864-3.9554-3.9753-.0062-.0827-.653-8.3626-.653-13.3195,0-3.4328,4.9474-7.0061,6.8538-8.0933l.4286-.2445,.1999-.4495c2.9785-6.7015,6.1484-10.0999,7.1034-11.0303,7.3875-1.0234,15.984-.8331,16.0737-.8331l.0394-1.6735v.1787l.03,1.49c.09,.01,8.69-.18,16.07,.84,.88,.85,3.62,3.79,6.37,9.44,.82-.49,1.5-.95,2.08-1.37,.15-.1,.3-.21,.43-.31-.09-.19-.18-.37-.27-.54-3.46-6.8-6.8199-9.66-6.97-9.79l-.32-.27-.42-.06C43.2195-.1478,34.6726,.0018,33.7286,.0219v-.0024c-.3766-.0117-9.2941-.205-17.0356,.9283l-.4199,.0615-.3254,.2723c-.1574,.1311-3.5103,3.0021-6.9736,9.8017l-.1697-.9112s-4.0548-.8155-5.3156,1.1919c-1.0941,1.7421,.5106,2.5481,2.8396,2.9523-2.4812,1.8132-6.3286,5.2778-6.3286,9.3511,0,5.0755,.6354,13.2112,.66,13.5165,.0602,1.1455,.4792,2.7889,1.4971,4.1711v4.3754c0,1.1431,.9267,2.0698,2.0699,2.0698h5.769c1.1431,0,2.0698-.9267,2.0698-2.0698v-1.3939c3.4169,.2318,8.5316,.482,14.7098,.4816,2.1863,0,4.5073-.0315,6.9293-.1061h.0325c2.4,.0699,4.71,.11,6.87,.11,.99,0,1.96-.01,2.89-.02-.02-.17-.15-1.36-.31-3-2.89,.03-6.07,.01-9.45-.09Z"/><path class="e" d="M33.6974,31.4419h9.18c.16-1,.59-2.03,1.17-2.99h-10.35v2.99Z"/><path class="e" d="M46.5775,25.4319c.95-.85,1.97-1.51,2.9-1.86-.07-.24-.17-.47-.31-.71-.07-.12-.15-.25-.25-.38h-.01c0-.01-.0099-.01-.0099-.01-.27-.36-.67-.74-1.2401-1.04l-.0099-.01c-.35-.19-.76-.35-1.2401-.47l-.17-.04h-12.54v3h12.17c.27,.08,.56,.21,.69,.4301,.17,.27,.11,.6899,.08,.79l-.06,.3Z"/><path class="e" d="M33.6974,3.842V13.2719c6.96,.11,17.22,.86,20.54,1.12h.02c.68,.05,1.06,.08,1.06,.08-.03-.21-.07-.41-.12-.62-.96-4.21-5.83-9.0099-5.83-9.0099-5.56-1.07-15.67-1-15.67-1Z"/><path class="e" d="M42.7974,36.1219h-9.1v3h9.28c-.07-.98-.13-2.01-.18-3Z"/><path class="e" d="M43.4974,44.8219l.01-.02h-.01v.02Z"/></g></g></g></svg>