<?xml version="1.0" encoding="UTF-8"?><svg xmlns="http://www.w3.org/2000/svg" viewBox="0 0 102.94 133.24"><defs><style>.e{fill:#fff;}.f{fill:#231f20;}</style></defs><g id="a"/><g id="b"><g id="c"><g id="d"><path class="e" d="M77.0928,56.5673h-21.0601c-.2324,.069-.4876,.1849-.6013,.3749-.1409,.235-.0909,.5959-.0621,.7043l.0275,.1152,.52,2.7302h21.2919l.5538-2.8664c.0225-.0874,.0725-.4484-.0684-.6833-.1136-.19-.3689-.3059-.6013-.3749Z"/><path class="e" d="M51.47,0C23.05,0,0,23.04,0,51.46c0,.46,0,.92,.02,1.38,.83,51.26,48.1,78.47,51.39,80.3l-.06,.1,.12-.06,.12,.06-.06-.1c3.29-1.83,50.56-29.04,51.39-80.3,.02-.46,.02-.92,.02-1.38C102.94,23.04,79.9,0,51.47,0Zm-16.2713,62.6578v-.013c-.6031,.0065-1.2322,.013-1.8742,.013-1.4008,0-2.8989-.0259-4.4553-.0714h-.0199c-1.5712,.0485-3.0767,.0688-4.4949,.0688-4.0067,.0003-7.3237-.162-9.5396-.3123v.904c0,.7413-.601,1.3423-1.3423,1.3423h-3.7413c-.7413,0-1.3423-.601-1.3423-1.3423v-2.8375c-.6602-.8965-.9319-1.9623-.9709-2.7051-.0159-.198-.428-5.4741-.428-8.7657,0-2.642,2.496-4.8892,4.105-6.0649-1.5103-.2621-2.5518-.7843-1.8423-1.914,.8176-1.3019,3.4472-.773,3.4472-.773l.11,.5909c2.246-4.4097,4.4204-6.2715,4.5225-6.3566l.2111-.1766,.2723-.0399c5.0205-.7349,10.8036-.6096,11.048-.602v.0016c.6123-.013,6.1552-.1101,11.0046,.6031l.2723,.0389,.2076,.175c.0973,.0844,2.2763,1.9391,4.5201,6.3491,.0583,.1102,.1168,.2269,.1751,.3502-.0843,.0649-.1816,.1362-.2789,.201-.3762,.2724-.8171,.5707-1.3489,.8885-1.7834-3.6641-3.5604-5.5708-4.131-6.1221-4.7861-.6614-10.3633-.5382-10.4218-.5447l-.0194-.9662v-.1151l-.0256,1.0845c-.0582,0-5.6332-.1235-10.4241,.5403-.6194,.6035-2.6751,2.8073-4.6068,7.1534l-.1296,.2915-.278,.1586c-1.2363,.7051-4.4448,3.0224-4.4448,5.2487,0,3.2147,.4195,8.5844,.4235,8.638,.0289,.4467,.282,2.578,2.5652,2.578l.108,.0062c.07,.0076,7.1337,.78,16.7791,.4814l.0323,1.0416,.0007-.0183v-.0519l.0259-.9728c2.192,.0649,4.2543,.0778,6.1285,.0583,.1038,1.0636,.1881,1.8353,.201,1.9456h.0065l-.0065,.013Zm7.6655-19.6826s-.2465-.0194-.6874-.0518h-.013c-2.1531-.1686-8.8069-.655-13.3206-.7263v-6.1155s6.5565-.0454,10.1623,.6485c0,0,3.1583,3.1129,3.7809,5.8431,.0324,.1362,.0583,.2659,.0778,.402Zm-14.021,14.0405h5.9015c.0325,.642,.0714,1.3101,.1168,1.9456h-6.0182v-1.9456Zm-8.3942-7.1104l.0207,.0864,.3898,2.0468h7.9809v1.9446h-9.5899l-.6844-3.5917c-.0667-.2606-.2381-1.1432,.2388-1.975,.2462-.4297,.7565-.9927,1.7911-1.2386l.1106-.0261h8.1338v1.9446h-7.894c-.1742,.0518-.3655,.1386-.4507,.2811-.1057,.1761-.0682,.4468-.0466,.528Zm8.3914,7.1116v1.9446h-7.7195v-1.9446h7.7195Zm-17.0319-6.5507c-1.7917-.4112-2.5847-.2056-2.5554-1.8503,.0294-1.6448,2.3485-1.4392,2.3485-1.4392,0,0,2.5859,.1762,4.4951,.7343s1.8129,3.6434,1.8129,3.6434c-2.916,.0307-4.3095-.6768-6.1011-1.0881Zm2.671,7.187c0,.983-.7969,1.7798-1.7799,1.7798s-1.7798-.7969-1.7798-1.7798,.7969-1.7799,1.7798-1.7799,1.7799,.7969,1.7799,1.7799Zm.3351-14.6757c.3865-2.8188,3.8636-6.2449,3.8636-6.2449,3.5995-.6939,10.162-.6505,10.162-.6505v6.1148c-5.4503,.0867-14.0256,.7806-14.0256,.7806Zm19.9819,11.0031h-5.9534v-1.9391h6.7122c-.3761,.6226-.655,1.2906-.7587,1.9391Zm2.3865-4.6045c-.0844-.1427-.2724-.227-.4475-.2789h-7.8925v-1.9456h8.1324l.1102,.0259c.3113,.0778,.5771,.1816,.8042,.3048l.0064,.0065c.3697,.1946,.6291,.441,.8042,.6744,0,0,.0065,0,.0065,.0065h.0065c.0649,.0843,.1168,.1686,.1622,.2464,.0908,.1556,.1556,.3049,.201,.4604-.6031,.227-1.2646,.655-1.8807,1.2062l.0389-.1945c.0194-.0649,.0583-.3372-.0519-.5123Zm57.9539,18.7074c-.051,.9747-.4129,2.3877-1.2929,3.579v3.7809c0,.989-.8016,1.7906-1.7906,1.7906h-4.9907c-.989,0-1.7906-.8016-1.7906-1.7906v-1.206c-2.9561,.2004-7.3808,.4167-12.725,.4167-1.8889,0-3.8922-.0272-5.9843-.0916-2.0914,.0643-4.096,.0916-5.9843,.0916-5.3447,.0004-9.7693-.2161-12.7252-.4166v1.2058c0,.989-.8017,1.7906-1.7906,1.7906h-4.9907c-.989,0-1.7906-.8016-1.7906-1.7906v-3.7851c-.8806-1.1957-1.243-2.6174-1.2952-3.6084-.0212-.2641-.5709-7.3022-.5709-11.693,0-3.5237,3.3283-6.5209,5.4748-8.0895-2.0148-.3497-3.403-1.0469-2.4565-2.554,1.0906-1.7366,4.5984-1.0311,4.5984-1.0311l.1468,.7882c2.9961-5.8823,5.8966-8.3659,6.0328-8.4793l.2815-.2356,.3632-.0532c6.6104-.9677,14.1981-.8175,14.7072-.8038,.5148-.0134,8.0986-.1635,14.7058,.8038l.3632,.0532,.2816,.2356c.1362,.1134,3.0366,2.5972,6.0328,8.4794l.1468-.7883s3.5078-.7055,4.5984,1.0311c.9465,1.5071-.4417,2.2043-2.4566,2.554,2.1464,1.5685,5.4748,4.5657,5.4748,8.0895,0,4.3908-.5497,11.4289-.5731,11.7266Z"/><path class="e" d="M87.187,49.3557l-.3699-.2109-.1738-.3895c-2.5748-5.7936-5.3148-8.7335-6.1454-9.5429-6.3915-.8841-13.8279-.7194-13.9045-.7201l-.0304-1.2899-.0304,1.2899c-.0776,0-7.5143-.1646-13.9052,.7208-.8262,.8049-3.5684,3.7448-6.1451,9.5422l-.1729,.3889-.3708,.2115c-1.6491,.9405-5.9291,4.0317-5.9291,7.0013,0,4.2882,.5596,11.451,.5649,11.5226,.0386,.5959,.3762,3.4389,3.4218,3.4389l.1441,.0082c.0934,.0101,9.5159,1.0406,22.3824,.6422l.0402,1.2964,.0402-1.2964c12.863,.3984,22.2885-.6321,22.3821-.6422l.1441-.0082c3.0457,0,3.3832-2.843,3.4199-3.4123,.0073-.0982,.5668-7.261,.5668-11.5493,0-2.9696-4.28-6.0609-5.9291-7.0013Zm-34.1798-9.2808c4.8015-.9256,13.5556-.8677,13.5556-.8677,0,0,8.7541-.0579,13.5557,.8677,0,0,4.6382,4.5701,5.1537,8.3304,0,0-11.4391-.9256-18.7094-1.0413-7.2703,.1157-18.7094,1.0413-18.7094,1.0413,.5155-3.7603,5.1537-8.3304,5.1537-8.3304Zm-7.9752,30.2811c-1.3113,0-2.3743-1.063-2.3743-2.3743s1.063-2.3743,2.3743-2.3743,2.3743,1.063,2.3743,2.3743-1.063,2.3743-2.3743,2.3743Zm6.9498-10.5098c-3.8896,.041-5.7486-.9029-8.1385-1.4514-2.39-.5485-3.4478-.2742-3.4086-2.4683,.0392-2.194,3.1328-1.9198,3.1328-1.9198,0,0,3.4495,.2351,5.9962,.9795,2.5467,.7444,2.4183,4.86,2.4183,4.86Zm24.8782,9.8809h-20.5946v-2.5941h20.5946v2.5941Zm3.4079-11.4321l-.913,4.7911h-25.5845l-.9129-4.7911c-.089-.3477-.3176-1.525,.3185-2.6346,.3284-.5731,1.0092-1.3242,2.3892-1.6523l.1475-.0349h21.6998l.1476,.0349c1.38,.3281,2.0608,1.0792,2.3892,1.6523,.6362,1.1096,.4075,2.2869,.3186,2.6346Zm7.8256,12.061c-1.3112,0-2.3743-1.063-2.3743-2.3743s1.063-2.3743,2.3743-2.3743,2.3743,1.063,2.3743,2.3743-1.063,2.3743-2.3743,2.3743Zm4.5974-14.4296c.0392,2.1941-1.0187,1.9199-3.4086,2.4683-2.39,.5485-4.249,1.4924-8.1386,1.4514,0,0-.1284-4.1156,2.4183-4.86,2.5467-.7444,5.9962-.9795,5.9962-.9795,0,0,3.0936-.2742,3.1328,1.9198Z"/><path class="f" d="M49.5636,54.9861c-2.5467-.7444-5.9962-.9795-5.9962-.9795,0,0-3.0936-.2742-3.1328,1.9198-.0392,2.1941,1.0187,1.9199,3.4086,2.4683,2.39,.5485,4.2489,1.4924,8.1385,1.4514,0,0,.1284-4.1156-2.4183-4.86Z"/><circle class="f" cx="45.032" cy="67.9818" r="2.3743"/><polygon class="f" points="56.2655 67.1329 56.2655 69.7271 66.5629 69.7271 76.8601 69.7271 76.8601 67.1329 66.5629 67.1329 56.2655 67.1329"/><path class="f" d="M90.2354,48.2675c2.0149-.3497,3.4031-1.0468,2.4566-2.554-1.0906-1.7366-4.5984-1.0311-4.5984-1.0311l-.1468,.7883c-2.9962-5.8823-5.8966-8.366-6.0328-8.4794l-.2816-.2356-.3632-.0532c-6.6072-.9672-14.191-.8171-14.7058-.8038-.509-.0137-8.0968-.1639-14.7072,.8038l-.3632,.0532-.2815,.2356c-.1362,.1134-3.0367,2.597-6.0328,8.4793l-.1468-.7882s-3.5078-.7055-4.5984,1.0311c-.9465,1.5071,.4417,2.2043,2.4565,2.554-2.1465,1.5685-5.4748,4.5657-5.4748,8.0895,0,4.3908,.5497,11.4289,.5709,11.693,.0521,.991,.4146,2.4127,1.2952,3.6084v3.7851c0,.989,.8017,1.7906,1.7906,1.7906h4.9907c.989,0,1.7906-.8016,1.7906-1.7906v-1.2058c2.9559,.2005,7.3805,.4169,12.7252,.4166,1.8882,0,3.8928-.0272,5.9843-.0916,2.0921,.0643,4.0954,.0916,5.9843,.0916,5.3442,0,9.7689-.2164,12.725-.4167v1.206c0,.989,.8017,1.7906,1.7906,1.7906h4.9907c.989,0,1.7906-.8016,1.7906-1.7906v-3.7809c.88-1.1913,1.2419-2.6044,1.2929-3.579,.0234-.2977,.5731-7.3358,.5731-11.7266,0-3.5237-3.3284-6.5209-5.4748-8.0895Zm2.3139,19.6387c-.0367,.5693-.3743,3.4123-3.4199,3.4123l-.1441,.0082c-.0937,.0101-9.5191,1.0406-22.3821,.6422l-.0402,1.2964-.0402-1.2964c-12.8665,.3984-22.2891-.6321-22.3824-.6422l-.1441-.0082c-3.0456,0-3.3832-2.843-3.4218-3.4389-.0054-.0716-.5649-7.2344-.5649-11.5226,0-2.9696,4.28-6.0609,5.9291-7.0013l.3708-.2115,.1729-.3889c2.5767-5.7974,5.319-8.7373,6.1451-9.5422,6.3908-.8854,13.8276-.7208,13.9052-.7208l.0304-1.2899,.0304,1.2899c.0767,.0007,7.5131-.164,13.9045,.7201,.8306,.8094,3.5707,3.7493,6.1454,9.5429l.1738,.3895,.3699,.2109c1.6492,.9405,5.9291,4.0317,5.9291,7.0013,0,4.2882-.5596,11.451-.5668,11.5493Z"/><path class="f" d="M89.5582,54.0067s-3.4495,.2351-5.9962,.9795c-2.5467,.7444-2.4183,4.86-2.4183,4.86,3.8896,.041,5.7486-.9029,8.1386-1.4514,2.39-.5485,3.4478-.2742,3.4086-2.4683-.0392-2.194-3.1328-1.9198-3.1328-1.9198Z"/><circle class="f" cx="88.0936" cy="67.9818" r="2.3743"/><path class="f" d="M77.5602,54.0081l-.1476-.0349h-21.6998l-.1475,.0349c-1.38,.3281-2.0609,1.0792-2.3892,1.6523-.6362,1.1096-.4075,2.2869-.3185,2.6346l.9129,4.7911h25.5845l.913-4.7911c.0889-.3477,.3176-1.525-.3186-2.6346-.3284-.5731-1.0092-1.3242-2.3892-1.6523Zm.2023,3.6175l-.5538,2.8664h-21.2919l-.52-2.7302-.0275-.1152c-.0288-.1083-.0789-.4693,.0621-.7043,.1137-.19,.3689-.3059,.6013-.3749h21.0601c.2324,.069,.4877,.1849,.6013,.3749,.1409,.235,.0909,.5959,.0684,.6833Z"/><path class="f" d="M85.2722,48.4053c-.5155-3.7603-5.1537-8.3304-5.1537-8.3304-4.8016-.9256-13.5557-.8677-13.5557-.8677,0,0-8.7541-.0579-13.5556,.8677,0,0-4.6382,4.5701-5.1537,8.3304,0,0,11.4391-.9256,18.7094-1.0413,7.2703,.1157,18.7094,1.0413,18.7094,1.0413Z"/><path class="f" d="M16.0967,47.911c-1.9091-.558-4.4951-.7343-4.4951-.7343,0,0-2.3191-.2056-2.3485,1.4392-.0294,1.6448,.7637,1.4391,2.5554,1.8503,1.7916,.4113,3.1852,1.1188,6.1011,1.0881,0,0,.0962-3.0853-1.8129-3.6434Z"/><path class="f" d="M10.9198,57.6533c0,.983,.7969,1.7798,1.7798,1.7798s1.7799-.7969,1.7799-1.7798-.7969-1.7799-1.7799-1.7799-1.7798,.7969-1.7798,1.7799Z"/><path class="f" d="M20.9464,49.0963h7.894v-1.9446h-8.1338l-.1106,.0261c-1.0345,.2459-1.5449,.809-1.7911,1.2386-.4769,.8318-.3055,1.7144-.2388,1.975l.6844,3.5917h9.5899v-1.9446h-7.9809l-.3898-2.0468-.0207-.0864c-.0216-.0812-.0591-.3518,.0466-.528,.0852-.1425,.2766-.2293,.4507-.2811Z"/><path class="f" d="M28.8403,36.0822s-6.5626-.0434-10.162,.6505c0,0-3.4771,3.426-3.8636,6.2449,0,0,8.5754-.6938,14.0256-.7806v-6.1148Z"/><rect class="f" x="21.1208" y="57.017" width="7.7195" height="1.9446"/><path class="f" d="M28.8691,60.6409l-.0259,.9728v.0519l-.0007,.0183-.0323-1.0416c-9.6454,.2986-16.7091-.4739-16.7791-.4814l-.108-.0062c-2.2832,0-2.5363-2.1313-2.5652-2.578-.004-.0536-.4235-5.4233-.4235-8.638,0-2.2263,3.2085-4.5436,4.4448-5.2487l.278-.1586,.1296-.2915c1.9316-4.3461,3.9874-6.5499,4.6068-7.1534,4.7909-.6638,10.3659-.5403,10.4241-.5403l.0256-1.0845v.1151l.0194,.9662c.0584,.0065,5.6357-.1167,10.4218,.5447,.5707,.5513,2.3477,2.4579,4.131,6.1221,.5318-.3178,.9728-.6161,1.3489-.8885,.0973-.0648,.1946-.1362,.2789-.201-.0583-.1232-.1168-.2399-.1751-.3502-2.2438-4.41-4.4229-6.2647-4.5201-6.3491l-.2076-.175-.2723-.0389c-4.8494-.7132-10.3923-.6161-11.0046-.6031v-.0016c-.2443-.0076-6.0274-.1329-11.0479,.602l-.2723,.0399-.2111,.1766c-.1021,.0851-2.2764,1.947-4.5225,6.3566l-.11-.5909s-2.6296-.5289-3.4472,.773c-.7095,1.1297,.332,1.6519,1.8423,1.914-1.609,1.1758-4.105,3.4229-4.105,6.0649,0,3.2916,.4121,8.5677,.428,8.7657,.0391,.7429,.3108,1.8087,.9709,2.7051v2.8375c0,.7413,.601,1.3423,1.3423,1.3423h3.7413c.7414,0,1.3423-.601,1.3423-1.3423v-.904c2.2159,.1503,5.5329,.3126,9.5396,.3123,1.4182,0,2.9237-.0204,4.4949-.0688h.0199c1.5565,.0454,3.0545,.0714,4.4553,.0714,.642,0,1.2711-.0065,1.8742-.013-.0129-.1102-.0973-.882-.201-1.9456-1.8742,.0195-3.9365,.0065-6.1285-.0583Z"/><path class="f" d="M28.8432,53.9807h5.9534c.1037-.6485,.3826-1.3165,.7587-1.9391h-6.7122v1.9391Z"/><path class="f" d="M37.1962,50.083c.6161-.5512,1.2775-.9792,1.8807-1.2062-.0454-.1556-.1102-.3048-.201-.4604-.0454-.0778-.0973-.1621-.1622-.2464h-.0065c0-.0065-.0065-.0065-.0065-.0065-.1751-.2335-.4345-.4799-.8042-.6744l-.0064-.0065c-.2271-.1232-.4929-.227-.8042-.3048l-.1102-.0259h-8.1324v1.9456h7.8925c.1751,.0519,.3632,.1362,.4475,.2789,.1102,.1751,.0713,.4474,.0519,.5123l-.0389,.1945Z"/><path class="f" d="M28.8432,36.0815v6.1155c4.5137,.0713,11.1675,.5577,13.3206,.7263h.013c.441,.0324,.6874,.0518,.6874,.0518-.0195-.1361-.0454-.2659-.0778-.402-.6226-2.7302-3.7809-5.8431-3.7809-5.8431-3.6058-.6939-10.1623-.6485-10.1623-.6485Z"/><path class="f" d="M34.7447,57.0157h-5.9015v1.9456h6.0182c-.0454-.6355-.0843-1.3035-.1168-1.9456Z"/><path class="f" d="M35.1987,62.6578l.0065-.013h-.0065v.013Z"/></g></g></g></svg>