<?xml version="1.0" encoding="UTF-8"?><svg xmlns="http://www.w3.org/2000/svg" viewBox="0 0 88.6304 86.9736"><defs><style>.e{fill:#fff;}</style></defs><g id="a"/><g id="b"><g id="c"><g id="d"><path class="e" d="M88.6304,34.6758L44.3154,0,0,34.6758H10.707v42.5322c0,5.3848,4.3809,9.7656,9.7656,9.7656h47.6851c5.3848,0,9.7656-4.3809,9.7656-9.7656V34.6758h10.707ZM44.3154,5.0781l32.7124,25.5977H11.6025L44.3154,5.0781Zm-5.8706,77.8955v-17.8613c0-.8389,.6826-1.5215,1.522-1.5215h8.6968c.8394,0,1.522,.6826,1.522,1.5215v17.8613h-11.7407Zm35.4785-5.7656c0,3.1787-2.5864,5.7656-5.7656,5.7656h-13.9722v-17.8613c0-3.0449-2.4771-5.5215-5.522-5.5215h-8.6968c-3.0449,0-5.522,2.4766-5.522,5.5215v17.8613h-13.9722c-3.1792,0-5.7656-2.5869-5.7656-5.7656V34.6758h59.2163v42.5322Z"/><path class="e" d="M27.3848,54.9531h6.5557c2.4839,0,4.5044-2.0205,4.5044-4.5049v-6.5557c0-2.4834-2.0205-4.5039-4.5044-4.5039h-6.5557c-2.4839,0-4.5044,2.0205-4.5044,4.5039v6.5557c0,2.4844,2.0205,4.5049,4.5044,4.5049Zm-.5044-11.0605c0-.2783,.2261-.5039,.5044-.5039h6.5557c.2783,0,.5044,.2256,.5044,.5039v6.5557c0,.2783-.2261,.5049-.5044,.5049h-6.5557c-.2783,0-.5044-.2266-.5044-.5049v-6.5557Z"/><path class="e" d="M54.6899,54.9531h6.5557c2.4839,0,4.5044-2.0205,4.5044-4.5049v-6.5557c0-2.4834-2.0205-4.5039-4.5044-4.5039h-6.5557c-2.4839,0-4.5044,2.0205-4.5044,4.5039v6.5557c0,2.4844,2.0205,4.5049,4.5044,4.5049Zm-.5044-11.0605c0-.2783,.2261-.5039,.5044-.5039h6.5557c.2783,0,.5044,.2256,.5044,.5039v6.5557c0,.2783-.2261,.5049-.5044,.5049h-6.5557c-.2783,0-.5044-.2266-.5044-.5049v-6.5557Z"/></g></g></g></svg>