<?xml version="1.0" encoding="UTF-8"?><svg xmlns="http://www.w3.org/2000/svg" viewBox="0 0 54.9985 69.96"><defs><style>.e{fill:#fff;}</style></defs><g id="a"/><g id="b"><g id="c"><g id="d"><path class="e" d="M27.499,0C12.3359,0,0,12.334,0,27.4941c0,.2559,.0005,.5137,.0103,.7158,.4326,26.707,25.4238,40.9062,26.4878,41.498,.2358,.1309,.4897,.207,.7461,.2314,.0947,.0137,.1899,.0205,.2861,.0205,.3296,0,.6636-.0811,.9702-.252,1.064-.5918,26.0552-14.791,26.4863-41.4443,.0112-.2559,.0117-.5137,.0117-.7695C54.9985,12.334,42.6621,0,27.499,0Zm23.4902,28.1455c-.3555,21.9307-18.9814,34.7295-23.4897,37.5088-4.5083-2.7793-23.1348-15.583-23.4917-37.5625-.0083-.1992-.0078-.3984-.0078-.5977C4,14.5391,14.5415,4,27.499,4s23.4995,10.5391,23.4995,23.4941c0,.1992,.0005,.3984-.0093,.6514Z"/><path class="e" d="M27.499,9.0488c-9.3203,0-16.9033,7.583-16.9033,16.9033s7.583,16.9033,16.9033,16.9033,16.9038-7.583,16.9038-16.9033-7.583-16.9033-16.9038-16.9033Zm0,29.8066c-7.1147,0-12.9033-5.7881-12.9033-12.9033s5.7886-12.9033,12.9033-12.9033,12.9038,5.7881,12.9038,12.9033-5.7886,12.9033-12.9038,12.9033Z"/></g></g></g></svg>