<?xml version="1.0" encoding="UTF-8"?><svg xmlns="http://www.w3.org/2000/svg" viewBox="0 0 82.4966 59"><defs><style>.e{fill:#231f20;}</style></defs><g id="a"/><g id="b"><g id="c"><g id="d"><path class="e" d="M76.9365,5.5605V0H5.5166V43.9971h-.0005v.4395c0,2.7588-2.4746,5.0039-5.5161,5.0039v4H11.0767v5.5596H82.4966V5.5605h-5.5601ZM7.9059,49.4404c1.0158-1.4321,1.6102-3.1533,1.6102-5.0039h.0005V4h63.4199V43.3174c0,3.376-2.7466,6.123-6.123,6.123H7.9059Zm70.5907,5.5596H15.0767v-1.5596h51.9102c5.4863,0,9.9497-4.4639,9.9497-9.9502V9.5605h1.5601V55Z"/><circle class="e" cx="17.3494" cy="20.9276" r="2.3124"/><circle class="e" cx="25.3084" cy="20.9276" r="2.3124"/><path class="e" d="M33.2675,18.6152c-1.277,0-2.3124,1.0353-2.3124,2.3124s1.0353,2.3124,2.3124,2.3124,2.3124-1.0353,2.3124-2.3124-1.0353-2.3124-2.3124-2.3124Z"/><circle class="e" cx="41.2266" cy="20.9276" r="2.3124"/><circle class="e" cx="49.1856" cy="20.9276" r="2.3124"/><circle class="e" cx="57.1447" cy="20.9276" r="2.3124"/><circle class="e" cx="65.1038" cy="20.9276" r="2.3124"/><path class="e" d="M17.3494,26.1235c-1.2771,0-2.3124,1.0353-2.3124,2.3124s1.0353,2.3124,2.3124,2.3124,2.3124-1.0353,2.3124-2.3124-1.0353-2.3124-2.3124-2.3124Z"/><path class="e" d="M25.3084,26.1235c-1.2771,0-2.3124,1.0353-2.3124,2.3124s1.0353,2.3124,2.3124,2.3124,2.3124-1.0353,2.3124-2.3124-1.0353-2.3124-2.3124-2.3124Z"/><path class="e" d="M33.2675,26.1235c-1.277,0-2.3124,1.0353-2.3124,2.3124s1.0353,2.3124,2.3124,2.3124,2.3124-1.0353,2.3124-2.3124-1.0353-2.3124-2.3124-2.3124Z"/><path class="e" d="M41.2266,26.1235c-1.2771,0-2.3124,1.0353-2.3124,2.3124s1.0353,2.3124,2.3124,2.3124,2.3124-1.0353,2.3124-2.3124-1.0353-2.3124-2.3124-2.3124Z"/><path class="e" d="M49.1856,26.1235c-1.277,0-2.3124,1.0353-2.3124,2.3124s1.0353,2.3124,2.3124,2.3124,2.3124-1.0353,2.3124-2.3124-1.0353-2.3124-2.3124-2.3124Z"/><path class="e" d="M57.1447,26.1235c-1.2771,0-2.3124,1.0353-2.3124,2.3124s1.0353,2.3124,2.3124,2.3124,2.3124-1.0353,2.3124-2.3124-1.0353-2.3124-2.3124-2.3124Z"/><path class="e" d="M65.1038,30.7483c1.2771,0,2.3124-1.0353,2.3124-2.3124s-1.0353-2.3124-2.3124-2.3124-2.3124,1.0353-2.3124,2.3124,1.0353,2.3124,2.3124,2.3124Z"/><circle class="e" cx="17.3494" cy="35.9442" r="2.3124"/><circle class="e" cx="25.3084" cy="35.9442" r="2.3124"/><path class="e" d="M33.2675,33.6318c-1.277,0-2.3124,1.0353-2.3124,2.3124s1.0353,2.3124,2.3124,2.3124,2.3124-1.0353,2.3124-2.3124-1.0353-2.3124-2.3124-2.3124Z"/><circle class="e" cx="41.2266" cy="35.9442" r="2.3124"/><circle class="e" cx="49.1856" cy="35.9442" r="2.3124"/><circle class="e" cx="57.1447" cy="35.9442" r="2.3124"/><circle class="e" cx="65.1038" cy="35.9442" r="2.3124"/><circle class="e" cx="17.3494" cy="43.4525" r="2.3124"/><circle class="e" cx="25.3084" cy="43.4525" r="2.3124"/><path class="e" d="M33.2675,41.1401c-1.277,0-2.3124,1.0353-2.3124,2.3124s1.0353,2.3124,2.3124,2.3124,2.3124-1.0353,2.3124-2.3124-1.0353-2.3124-2.3124-2.3124Z"/><circle class="e" cx="41.2266" cy="43.4525" r="2.3124"/><circle class="e" cx="49.1856" cy="43.4525" r="2.3124"/><circle class="e" cx="57.1447" cy="43.4525" r="2.3124"/><circle class="e" cx="65.1038" cy="43.4525" r="2.3124"/><polygon class="e" points="27.2769 12.374 27.146 12.793 27.0063 12.374 25.6123 8.5859 23.4883 8.5859 23.4883 14.3262 24.9233 14.3262 24.9233 10.0947 25.1118 10.6846 26.4814 14.3262 27.7935 14.3262 29.1797 10.6689 29.3599 10.0947 29.3599 14.3262 30.7954 14.3262 30.7954 8.5859 28.6714 8.5859 27.2769 12.374"/><path class="e" d="M37.4175,9.1846c-.3145-.2461-.6821-.4277-1.103-.5459-.4214-.1172-.8667-.1758-1.3369-.1758s-.9146,.0596-1.3325,.1797c-.4185,.1211-.7832,.3037-1.0947,.5498-.312,.2461-.5591,.5566-.7422,.9307-.1836,.375-.2749,.8164-.2749,1.3242,0,.5146,.0903,.96,.2705,1.3369,.1807,.3779,.4268,.6895,.7383,.9355,.3115,.2451,.6763,.4287,1.0947,.5488s.8652,.1807,1.3408,.1807,.9229-.0605,1.3408-.1807c.4185-.1201,.7847-.3037,1.0991-.5488,.314-.2461,.563-.5576,.7461-.9355,.1831-.377,.2749-.8223,.2749-1.3369,0-.5137-.0918-.958-.2749-1.332-.1831-.375-.4321-.6855-.7461-.9307Zm-.5908,3.0625c-.1011,.2217-.2402,.4033-.418,.5459-.1777,.1416-.3896,.2461-.6357,.3115s-.5112,.0977-.7954,.0977c-.29,0-.5562-.0322-.7998-.0977-.2432-.0654-.4521-.1699-.627-.3115-.1753-.1426-.3135-.3242-.4146-.5459s-.1514-.4883-.1514-.7998,.0503-.5762,.1514-.7949,.2393-.3984,.4146-.5371c.1748-.1396,.3838-.2422,.627-.3076,.2437-.0654,.5098-.0986,.7998-.0986,.2842,0,.5479,.0332,.7915,.0986,.2432,.0654,.4551,.168,.6353,.3076,.1807,.1387,.3213,.3184,.4224,.5371,.1016,.2188,.1519,.4834,.1519,.7949s-.0503,.5781-.1519,.7998Z"/><path class="e" d="M43.9741,12.8174c-.0161-.0439-.0356-.085-.0571-.123-.0166-.0332-.0371-.0684-.0615-.1064-.0249-.0381-.0479-.0742-.0698-.1074l-2.731-3.8945h-1.8779v5.7402h1.4351v-4.2314c.0166,.0439,.0356,.085,.0576,.123,.0161,.0322,.0352,.0693,.0571,.1104s.0464,.0752,.0737,.1025l2.731,3.8955h1.8779v-5.7402h-1.4351v4.2314Z"/><polygon class="e" points="46.1064 9.8154 48.3618 9.8154 48.3618 14.3262 49.8379 14.3262 49.8379 9.8154 52.0933 9.8154 52.0933 8.5859 46.1064 8.5859 46.1064 9.8154"/><polygon class="e" points="57.4893 14.3262 58.9653 14.3262 58.9653 8.5859 57.4893 8.5859 57.4893 10.792 54.2661 10.792 54.2661 8.5859 52.79 8.5859 52.79 14.3262 54.2661 14.3262 54.2661 12.0215 57.4893 12.0215 57.4893 14.3262"/></g></g></g></svg>