<?xml version="1.0" encoding="UTF-8"?><svg xmlns="http://www.w3.org/2000/svg" viewBox="0 0 59.7984 91.5621"><defs><style>.e{fill:#231f20;}</style></defs><g id="a"/><g id="b"><g id="c"><path id="d" class="e" d="M55.2818,62.6011c-4.2064-5.6286-6.6235-13.29-7.4415-16.2104,.1013-.2394,.1573-.5025,.1573-.7788v-8.2979c0-.6418-.3079-1.2067-.778-1.5727-.2217-1.8386-.5323-5.4608-.097-8.9703h5.436c.6489,0,1.2573-.3145,1.6323-.8447,.375-.5293,.4697-1.208,.2539-1.8193-.2556-.7267-6.3561-17.4047-25.4209-19.7056l-1.4673-3.228c-.4551-1.002-1.6328-1.4473-2.6357-.999-1.7018,.7593-8.4896,3.9493-11.9977,7.9791l-9.888-.9254c-1.0615-.1016-2.0088,.6455-2.165,1.6973L.022,14.6353c-.1465,.9834,.4517,1.9248,1.4038,2.21l8.9045,2.6689c-.389,5.2546-1.0181,11.5908-2.3391,16.6025-1.1157,2.9316-1.9717,8.4541,1.7148,11.1162,.3521,.2549,.7622,.3789,1.1699,.3789,.5415,0,1.0791-.2188,1.4707-.6436,.2075-.2246,5.0947-5.6045,5.9238-13.8936l.1025-1.0518c.2286-2.3672,.5302-5.4522,1.1732-8.3922l12.7932,4.8101-.4065,7.1843c-.5617,.3541-.9377,.9758-.9377,1.6888v8.2979c0,.2765,.0562,.5399,.1577,.7794-.8182,2.9208-3.2357,10.5817-7.4418,16.2099-5.9893,8.0146-4.3223,26.373-4.2485,27.1504,.0977,1.0264,.96,1.8105,1.9912,1.8105H57.5396c1.0312,0,1.8936-.7842,1.9912-1.8105,.0737-.7783,1.7402-19.1357-4.249-27.1504Zm-20.2866-18.9893v-4.2979h9.0024v4.2979h-9.0024ZM4.2329,13.5103l.3154-2.123,6.3286,.5922c-.0282,.16-.0521,.3202-.0645,.4811-.0635,.8242-.1279,1.8145-.2002,2.9277l-.0022,.0336-6.3772-1.9116Zm10.0571,19.166c-.4019,4.0195-1.9751,7.2666-3.2285,9.2871-.1807-1.6416,.3711-3.6543,.6973-4.499,.0273-.0703,.0508-.1416,.0703-.2148,1.8145-6.8115,2.3926-15.7119,2.7749-21.6016,.0713-1.0957,.1343-2.0693,.1968-2.8809,.1616-2.1055,5.001-5.6094,9.9551-8.0898l2.4771,5.4492c-2.0854,.0059-3.9526,.5684-5.5796,1.6865-5.728,3.9375-6.6509,13.499-7.2617,19.8252l-.1016,1.0381Zm6.3834-12.8953c.772-1.9949,1.8092-3.6842,3.246-4.6721,1.5757-1.085,3.5747-1.2686,6.1069-.5674,.748,.207,1.5493-.0381,2.0542-.6279,.5044-.5908,.6216-1.4199,.3003-2.127l-1.3609-2.994c10.7407,2.2512,16.2058,9.8624,18.4205,13.9784h-4.0215c-.9536,0-1.7744,.6729-1.9609,1.6074-.7988,3.9941-.5747,8.3389-.3125,10.9355h-7.189l.4595-8.1143c.0498-.873-.4741-1.6777-1.2925-1.9854l-14.4501-5.4333ZM55.6822,87.5621H23.3111c-.335-5.8828-.1597-17.5303,3.604-22.5664,4.5742-6.1209,7.1325-14.0974,8.054-17.3838h9.055c.9213,3.2864,3.4794,11.2629,8.0536,17.3838,3.7637,5.0361,3.9395,16.6836,3.6045,22.5664Z"/></g></g></svg>