<?xml version="1.0" encoding="UTF-8"?><svg xmlns="http://www.w3.org/2000/svg" viewBox="0 0 68.165 68.165"><defs><style>.e{fill:#231f20;}</style></defs><g id="a"/><g id="b"><g id="c"><g id="d"><path class="e" d="M34.0825,21.0547c-7.1841,0-13.0283,5.8438-13.0283,13.0273s5.8442,13.0283,13.0283,13.0283,13.0278-5.8447,13.0278-13.0283-5.8442-13.0273-13.0278-13.0273Zm0,22.0557c-4.978,0-9.0283-4.0498-9.0283-9.0283s4.0503-9.0273,9.0283-9.0273,9.0278,4.0498,9.0278,9.0273-4.0498,9.0283-9.0278,9.0283Z"/><path class="e" d="M68.165,43.4492V24.7158h-7.5205c-.3359-.9541-.7217-1.8877-1.1548-2.7939l5.3164-5.3164L51.5591,3.3594l-5.3159,5.3154c-.9058-.4326-1.8394-.8184-2.7939-1.1543V0H24.7153V7.5205c-.9546,.3359-1.8882,.7217-2.7935,1.1543l-5.3159-5.3154L3.3594,16.6055l5.3154,5.3164c-.4331,.9062-.8188,1.8398-1.1548,2.7939H0v18.7334H7.52c.3359,.9541,.7217,1.8877,1.1548,2.7939l-5.3159,5.3154,13.2471,13.2471,5.3159-5.3154c.9067,.4326,1.8398,.8184,2.7935,1.1543v7.5205h18.7339v-7.5205c.9536-.3359,1.8867-.7217,2.7935-1.1543l5.3164,5.3154,13.2471-13.2471-5.3164-5.3154c.4331-.9062,.8188-1.8398,1.1548-2.7939h7.5205Zm-9.0161,8.1094l-7.5898,7.5908-4.5767-4.5762-1.314,.7188c-1.5044,.8232-3.1133,1.4883-4.7817,1.9775l-1.4375,.4209v6.4746h-10.7339v-6.4746l-1.4375-.4209c-1.6685-.4893-3.2773-1.1543-4.7817-1.9775l-1.3145-.7188-4.5757,4.5762-7.5898-7.5908,4.5762-4.5762-.7202-1.3154c-.8218-1.501-1.4868-3.1084-1.9761-4.7803l-.4214-1.4375H4v-10.7334h6.4746l.4214-1.4375c.4893-1.6719,1.1543-3.2793,1.9761-4.7803l.7202-1.3154-4.5767-4.5771,7.5903-7.5898,4.5762,4.5771,1.3149-.7207c1.5-.8213,3.1089-1.4863,4.7808-1.9766l1.4375-.4209V4h10.7339v6.4746l1.4375,.4209c1.6719,.4902,3.2808,1.1553,4.7808,1.9766l1.3145,.7197,4.5771-4.5762,7.5898,7.5898-4.5767,4.5771,.7202,1.3154c.8218,1.501,1.4868,3.1084,1.9761,4.7803l.4214,1.4375h6.4751v10.7334h-6.4751l-.4214,1.4375c-.4893,1.6719-1.1543,3.2793-1.9761,4.7803l-.7202,1.3154,4.5767,4.5762Z"/></g></g></g></svg>