<?xml version="1.0" encoding="utf-8"?>
<!-- Generator: Adobe Illustrator 28.0.0, SVG Export Plug-In . SVG Version: 6.00 Build 0)  -->
<svg version="1.1" id="Layer_2_00000121986373074611093010000013339876294067065257_"
	 xmlns="http://www.w3.org/2000/svg" xmlns:xlink="http://www.w3.org/1999/xlink" x="0px" y="0px" viewBox="0 0 170.9 183.1"
	 style="enable-background:new 0 0 170.9 183.1;" xml:space="preserve">
<g id="Layer_1-2">
	<g id="calendar">
		<path d="M36,18.9c0-2.4,0-4.5,0-6.7c0-1.9,0-3.8,0-5.6c0-3.7,2.9-6.6,6.5-6.6c3.7-0.1,6.6,2.6,6.8,6.3c0.1,3.5,0,7,0,10.4
			c0,0.6,0,1.3,0,2h72.3c0-0.6,0.1-1.1,0.1-1.6c0-3.4,0-6.8,0-10.1c0-1.5,0.3-2.9,1.2-4.1c1.5-2.3,4.3-3.4,7-2.8
			c2.6,0.6,4.7,2.9,5.1,5.6c0.1,0.6,0.1,1.2,0.1,1.8c0,3.2,0,6.4,0,9.6v1.8c0.8,0,1.4,0,2.1,0c7.2,0,14.4,0,21.6,0
			c5.2,0,10.1,3.4,11.7,8.4c0.3,0.9,0.4,1.8,0.5,2.7c0.1,0.9,0.1,1.7,0.1,2.6c0,45.7,0,91.4,0,137c0,1.3,0,2.6-0.3,3.8
			c-1.3,5.6-6,9.4-11.8,9.6c-0.3,0-0.5,0-0.8,0c-48.4,0-96.7,0-145.1,0c-2.5,0-4.8-0.4-6.9-1.8c-4-2.5-6-6-6-10.7
			c0-12.9,0-25.7,0-38.6c0-33.3,0-66.6,0-99.9c0-1.4,0.1-2.9,0.5-4.3C2,22.5,6.7,19,12.3,19c7.2,0,14.4,0,21.5,0
			C34.5,19,35.2,19,36,18.9L36,18.9z M10.3,68v1.6c0,32.7,0,65.3,0,97.9c0,3,1.9,5.4,5.2,5.3c4.9-0.1,9.8,0,14.6,0
			c41.7,0,83.4,0,125.1,0c2.9,0,5.7-1.6,5.4-5.4c0-0.3,0-0.6,0-1c0-9.3,0-18.7,0-28c0-22.8,0-45.6,0-68.3c0-0.7,0-1.3-0.1-2.1
			L10.3,68L10.3,68z M36,29.6c-3.3,2.1-4.3,7.3-3,10.9c1.6,4.5,6.1,7.4,10.8,6.9c4.9-0.5,8.6-4.3,9.1-9.3c0.4-3.3-1.4-7.5-3.6-8.3
			c0,2.5,0.1,5,0,7.4c-0.2,3.7-3.2,6.2-6.9,6.1c-3.5-0.1-6.2-2.9-6.3-6.5c0-1.9,0-3.8,0-5.8C36,30.6,36,30.1,36,29.6z M121.6,29.5
			c-3.4,2.7-4.5,7.6-2.8,11.6c1.8,4.2,6.2,6.8,10.6,6.3c4.7-0.5,8.4-4.1,9.1-8.9c0.5-3.3-1.1-7.6-3.6-8.8c0,0.6,0,1.1,0,1.6
			c0,1.8,0.1,3.7,0,5.5c-0.2,5.1-5.5,8.1-9.9,5.6c-2.3-1.3-3.4-3.4-3.4-6C121.6,34.2,121.6,32,121.6,29.5L121.6,29.5z"/>
		<path d="M110.6,120.4c0,2,0,4.1,0,6.1c0,2.5-1.2,3.8-3.7,3.8c-4.1,0-8.2,0-12.4,0c-2.5,0-3.7-1.2-3.7-3.7c0-4.2-0.1-8.3,0-12.5
			c0-2.4,1.3-3.6,3.8-3.6c4.1,0,8.2,0,12.4,0c2.5,0,3.6,1.2,3.7,3.7c0,0.1,0,0.1,0,0.2C110.6,116.3,110.6,118.4,110.6,120.4
			L110.6,120.4z"/>
		<path d="M49.7,120.4c0,2,0,4.1,0,6.1c0,2.6-1.2,3.7-3.8,3.8c-4.1,0-8.1,0-12.2,0c-2.6,0-3.8-1.2-3.8-3.9c0-4.1,0-8.1,0-12.2
			c0-2.5,1.2-3.7,3.8-3.7c4.1,0,8.2,0,12.4,0c2.5,0,3.6,1.2,3.7,3.7C49.8,116.2,49.7,118.3,49.7,120.4L49.7,120.4z"/>
		<path d="M100.6,99.8c-2.1,0-4.2,0-6.3,0c-2.2,0-3.5-1.1-3.6-3.2c-0.1-4.4-0.1-8.8,0-13.2c0-2.2,1.3-3.2,3.5-3.2
			c4.2,0,8.5,0.1,12.7,0c2-0.1,3.6,1.4,3.6,3.6c-0.1,4.2-0.1,8.3,0,12.5c0,2-1.3,3.7-3.6,3.6C104.9,99.8,102.8,99.8,100.6,99.8
			L100.6,99.8z"/>
		<path d="M80.1,120.5c0,2.1,0,4.2,0,6.3c0,2.3-1.2,3.5-3.4,3.5c-4.3,0.1-8.6,0-12.8,0c-2.3,0-3.5-1.6-3.4-3.6c0.1-4.2,0-8.5,0-12.7
			c0-2.4,1.2-3.5,3.6-3.5c4.2,0,8.3,0,12.5,0c2.4,0,3.5,1.2,3.6,3.6C80.2,116.2,80.1,118.3,80.1,120.5L80.1,120.5z"/>
		<path d="M40,80.2c2.1,0,4.3,0,6.4,0c2,0,3.3,1.1,3.3,3.1c0.1,4.5,0.1,9,0,13.5c0,1.9-1.3,3-3.2,3.1c-4.4,0-8.9,0-13.3,0
			c-1.9,0-3.1-1.2-3.2-3.1c-0.1-4.5-0.1-9,0-13.5c0-1.9,1.3-3,3.2-3C35.5,80.2,37.7,80.2,40,80.2L40,80.2z"/>
		<path d="M141,120.3c0,2.1-0.1,4.2,0,6.3c0.1,2.5-1.4,3.8-3.6,3.8c-4.2,0-8.4,0-12.5,0c-2.5,0-3.6-1.2-3.6-3.7
			c0-4.1,0.1-8.2,0-12.4c-0.1-2.3,1.6-3.8,3.8-3.8c4.1,0.1,8.1,0,12.2,0c2.6,0,3.7,1.1,3.8,3.7c0,0.1,0,0.1,0,0.2
			C141,116.3,141,118.3,141,120.3z"/>
		<path d="M39.8,160.6c-2.1,0-4.3,0-6.4,0c-2.1,0-3.4-1.2-3.4-3.4c0-4.3,0-8.6,0-12.9c0-2.3,1.2-3.4,3.5-3.5c4.3,0,8.6,0,12.8,0
			c2.2,0,3.4,1.2,3.4,3.4c0,4.3,0,8.7,0,13c0,2.2-1.3,3.3-3.5,3.3C44.1,160.6,42,160.6,39.8,160.6L39.8,160.6z"/>
		<path d="M100.7,160.6c-2.1,0-4.3,0-6.4,0c-2.2,0-3.5-1.1-3.5-3.3c-0.1-4.3-0.1-8.7,0-13c0-2.3,1.3-3.4,3.6-3.4c4.2,0,8.3,0,12.5,0
			c2.5,0,3.7,1.1,3.7,3.6c0,4.1-0.1,8.2,0,12.4c0,2.1-1.3,3.9-3.8,3.7C104.8,160.5,102.8,160.6,100.7,160.6L100.7,160.6z"/>
		<path d="M70.3,80.2c2.1,0,4.3,0.1,6.4,0c1.8-0.1,3.4,1.3,3.4,3.2c0,4.4,0,8.9,0,13.3c0,2-1.2,3.1-3.3,3.1c-4.4,0-8.8,0-13.2,0
			c-2,0-3.2-1.2-3.2-3.2c0-4.4,0-8.8,0-13.2c0-2.2,1.2-3.3,3.3-3.3C65.9,80.2,68.1,80.2,70.3,80.2L70.3,80.2z"/>
		<path d="M131.2,80.2c2.1,0,4.3,0,6.4,0c2.1,0,3.3,1.1,3.4,3.2c0,4.4,0,8.8,0,13.2c0,2.1-1.2,3.2-3.3,3.3c-4.3,0-8.7,0-13,0
			c-2.2,0-3.3-1.2-3.4-3.4c0-4.3,0-8.6,0-12.8c0-2.3,1.2-3.4,3.5-3.4C126.9,80.2,129,80.2,131.2,80.2L131.2,80.2z"/>
		<path d="M60.4,150.8c0-2.1,0-4.3,0-6.4c0-2.3,1.1-3.4,3.5-3.5c4.3,0,8.6,0,12.9,0c2.2,0,3.4,1.2,3.4,3.4c0,4.3,0,8.7,0,13
			c0,2.1-1.2,3.3-3.3,3.3c-4.4,0-8.8,0-13.2,0c-2,0-3.2-1.2-3.2-3.2C60.4,155.2,60.4,153,60.4,150.8L60.4,150.8z"/>
	</g>
</g>
</svg>
