<?xml version="1.0" encoding="utf-8"?>
<!-- Generator: Adobe Illustrator 28.0.0, SVG Export Plug-In . SVG Version: 6.00 Build 0)  -->
<svg version="1.1" id="Layer_2_00000131357169893223766280000014517480239070091193_"
	 xmlns="http://www.w3.org/2000/svg" xmlns:xlink="http://www.w3.org/1999/xlink" x="0px" y="0px" viewBox="0 0 206.8 199.9"
	 style="enable-background:new 0 0 206.8 199.9;" xml:space="preserve">
<g id="home">
	<path d="M207.4,83.5v4.3c-2.6,3-5.3,5.9-7.9,8.9c-1.9,2.2-3.3,3.3-4.9,3.3c-1.3,0-2.7-0.8-4.5-2.3c-28.7-23.9-57.3-47.8-86-71.7
		c-7.8,6.5-15.5,12.9-23.2,19.3C60,62.7,39.1,80.1,18.3,97.5c-2,1.7-3.5,2.5-4.9,2.5c-1.5,0-2.9-1.1-4.8-3.3
		c-1.9-2.2-3.7-4.4-5.5-6.6c-3.5-4.2-3.4-5.8,0.8-9.3C20.4,66.9,37,53.1,53.6,39.3C68.1,27.2,82.7,15,97.4,3c0.6-0.5,1.3-1,2-1.5
		c1.4-1,3.1-1.5,4.8-1.5c1.8,0,3.7,0.6,5.2,1.8c0,0,0,0,0.1,0c9.4,7.6,27.5,23.3,36.7,31c0.9,0.8,2,1.4,3.5,2.5
		c0-8.4,0.1-16.2-0.1-23.9c-0.1-3.6,0.9-6.1,4.5-7.2l17,0c4.2,1,5,4,4.9,7.8c-0.1,16.2,0,24.5-0.1,40.7c0,3.2,0.9,5.3,3.4,7.3
		C188.8,67.8,198,75.7,207.4,83.5z"/>
	<path d="M104,53.3c21.2,17.6,41,33.8,60,49.4c-0.1,12.7-0.1,25.5-0.1,37.9c0,6.6,0,40.7,0,47.3c0,0,0,0,0,0.1
		c-10.9,0-21.8,0-32.8,0v-48.7v-12h-12H88.8h-12v12v48.7c-4.7,0-9.5,0-14.2,0c-6.2,0-12.3,0-18.5,0c-0.1-23-0.1-68.5,0.1-85.1
		c13.2-10.9,26.6-22,39.5-32.7C90.5,64.5,97.3,58.9,104,53.3L104,53.3z M104,37.7c-23,19.1-46.1,38-69.1,57.1
		c-1.4,1.2-2.7,3.5-2.7,5.3C32,120.6,32,168.6,32.1,189c0,7.6,3.6,10.9,11.2,10.9c6.4,0,12.8,0,19.2,0c8.8,0,17.5,0,26.2,0v-60.7
		h30.3v60.7c15.3,0,30.1,0,44.9,0c8.6,0,11.9-3.3,11.9-12c0-19.7-0.1-67,0.1-86.7c0-3.1-1-5-3.3-6.9C149.8,75.5,126.9,56.6,104,37.7
		L104,37.7z"/>
</g>
</svg>
