<?xml version="1.0" encoding="utf-8"?>
<!-- Generator: Adobe Illustrator 26.2.1, SVG Export Plug-In . SVG Version: 6.00 Build 0)  -->
<svg version="1.1" id="Layer_1" xmlns="http://www.w3.org/2000/svg" xmlns:xlink="http://www.w3.org/1999/xlink" x="0px" y="0px"
	 viewBox="0 0 55 70" style="enable-background:new 0 0 55 70;" xml:space="preserve">
<style type="text/css">
	.st0{fill:#FF0000;}
</style>
<g id="a">
</g>
<g id="b">
	<g id="c">
		<g id="d">
			<path class="st0" d="M27.5,0C12.3,0,0,12.3,0,27.5c0,0.3,0,0.5,0,0.7c0.4,26.7,25.4,40.9,26.5,41.5c0.2,0.1,0.5,0.2,0.7,0.2
				c0.1,0,0.2,0,0.3,0c0.3,0,0.7-0.1,1-0.3c1.1-0.6,26.1-14.8,26.5-41.4c0-0.3,0-0.5,0-0.8C55,12.3,42.7,0,27.5,0z M51,28.1
				c-0.4,21.9-19,34.7-23.5,37.5C23,62.9,4.4,50.1,4,28.1c0-0.2,0-0.4,0-0.6C4,14.5,14.5,4,27.5,4S51,14.5,51,27.5
				C51,27.7,51,27.9,51,28.1z"/>
			<path class="st0" d="M27.5,9C18.2,9,10.6,16.6,10.6,26s7.6,16.9,16.9,16.9S44.4,35.3,44.4,26S36.8,9,27.5,9z M27.5,38.9
				c-7.1,0-12.9-5.8-12.9-12.9S20.4,13,27.5,13S40.4,18.8,40.4,26S34.6,38.9,27.5,38.9z"/>
		</g>
	</g>
</g>
</svg>
