<?xml version="1.0" encoding="utf-8"?>
<!-- Generator: Adobe Illustrator 28.0.0, SVG Export Plug-In . SVG Version: 6.00 Build 0)  -->
<svg version="1.1" id="Layer_2_00000063600555643385267380000002191712903064510900_"
	 xmlns="http://www.w3.org/2000/svg" xmlns:xlink="http://www.w3.org/1999/xlink" x="0px" y="0px" viewBox="0 0 152.3 186.9"
	 style="enable-background:new 0 0 152.3 186.9;" xml:space="preserve">
<g id="Layer_1-2">
	<path id="map" d="M146.1,175.7l-0.1-0.1l-13.2-78.1H132c5.2-8.2,9.9-16.7,14-25.6c3.3-7.2,5.9-14.5,6.3-22.8
		c-0.2-2.3-0.4-5-0.8-7.7c-5.1-28.3-31.3-44.2-55.6-41.1C65,4.3,43.8,37.4,55.8,66c4.7,11.1,10.4,21.5,16.7,31.6h-61L0,186.9h147.9
		l-1.9-11.1L146.1,175.7z M101,30.4c9.4,0,17.4,8.1,17.4,17.4c0,9.3-8.2,17.5-17.5,17.4c-9.4-0.1-17.5-8.2-17.4-17.5
		C83.5,38.3,91.6,30.4,101,30.4z M125.5,174.9H21.6L74.3,144L125.5,174.9L125.5,174.9z M97.5,132.3c2,2.6,4.8,2.5,7-0.2
		c1.8-2.2,3.5-4.5,5.2-6.8c4.8-6.5,9.6-13.1,14.1-19.8l10.3,60.9L32.1,104.8h45.4C83.8,114.2,90.6,123.3,97.5,132.3z M20.4,111.3
		l46.7,28.2l-54.4,32C12.6,171.6,20.4,111.3,20.4,111.3z"/>
</g>
</svg>
