<?xml version="1.0" encoding="utf-8"?>
<!-- Generator: Adobe Illustrator 28.0.0, SVG Export Plug-In . SVG Version: 6.00 Build 0)  -->
<svg version="1.1" id="Layer_2_00000053537229825604176430000008414346835555815337_"
	 xmlns="http://www.w3.org/2000/svg" xmlns:xlink="http://www.w3.org/1999/xlink" x="0px" y="0px" viewBox="0 0 165.8 165.8"
	 style="enable-background:new 0 0 165.8 165.8;" xml:space="preserve">
<g id="Layer_1-2">
	<g id="store">
		<path d="M165.8,56c-1-16.5-2.4-32.5-3.6-46c-0.8-8.2-2.8-10-11.3-10c-16.7,0-33.3,0-50,0H83.2h-20C46.7,0,30.2,0,13.7,0
			C7.2,0,4.3,2.3,3.9,7.7l-0.3,3.5C2.2,26.1,0.8,41.6,0,56.7c-0.2,2.9,0.8,5.8,1.7,8.7c0.4,1.3,0.8,2.6,1.1,3.8
			c0.2,0.8,0.5,1.7,0.7,2.5c0.5,1.7,1.1,3.3,1.1,4.9c0.1,18.7,0.1,37.7,0.1,56.1c0,7.3,0,14.6,0,21.9c0,8.4,2.7,11.2,11.1,11.2
			c22.8,0,44.7,0,66,0c23.3,0,46,0,68.2,0c8.2,0,10.9-2.8,10.9-10.9V148c0-22.3,0-45.4,0-68.2c0-4.2,0.3-8.6,2.7-13.1
			C165.2,64,166,59.9,165.8,56L165.8,56z M129,58.4c-0.5-5.8-0.9-11.5-1.3-17.3c-0.7-8.9-1.4-18.1-2.1-27.1c-0.1-1.5,0.1-2.4,0.6-3
			c0.4-0.4,1.2-0.7,2.3-0.7c0.1,0,0.3,0,0.4,0c2.3,0.1,4.7,0.1,6.9,0.1c1,0,2,0,3,0h0.5c6.5,0,9.8,0,11.5,1.5
			c1.6,1.5,1.9,4.8,2.3,11.3v0.1c0.8,11.9,1.8,23.7,2.5,32.6c0.3,3.9-0.8,7.6-3.1,10.3c-2.3,2.7-5.7,4.3-9.6,4.6
			C135.7,71.3,129.6,65.7,129,58.4L129,58.4z M74.3,104.3C74.3,96,71.3,93,63.1,93c-8.1,0-16.4,0-24.4,0h-0.4
			c-9.2,0-11.8,2.5-11.8,11.6c0,10.7,0,21.4,0,32.2V155H15.5V80c11.1,2.6,19.8,0,26.6-8.1c6.2,6.7,13.3,9.6,21.5,8.9
			c8-0.7,14.2-5,19-13c5.1,7.8,12,12.5,19.6,13.2c7.7,0.7,15.3-2.4,21.5-8.9c6.9,8,16,10.6,27,7.8c0,0.2,0.1,0.4,0.1,0.7
			c0.1,0.8,0.2,1.5,0.2,2.3c0,11.1,0,22.1,0,33.2c0,11.8,0,23.6,0,35.4v0.3c0,1.3,0,2.5-0.6,3.1c-0.4,0.4-1.2,0.7-2.3,0.6
			c-12.5-0.1-24.9-0.1-37.5-0.1c-6,0-12.1,0-18.2,0H74.3V137C74.3,126.1,74.3,115.2,74.3,104.3L74.3,104.3z M16.6,10.3
			c0,0,0.1,0,0.1,0c5.4,0.1,10.8,0.1,16.5,0.1c2.2,0,4.5,0,6.9,0c-0.2,2.5-0.3,5-0.4,7.4c-0.3,5.7-0.7,11.1-1,16.5
			c-0.3,4.6-0.7,9.2-1.1,13.7c-0.3,3.2-0.5,6.3-0.8,9.5c-0.3,4-1.9,7.4-4.6,9.6c-2.7,2.3-6.3,3.3-10.3,2.9c-7-0.6-12.1-7-11.4-14.5
			l0.8-9.2C12,35.7,12.9,24.8,13.7,14C13.9,11.6,14.1,10.3,16.6,10.3L16.6,10.3z M109.3,10.2c2-0.3,3.3-0.1,4.2,0.6
			c1,0.8,1.5,2.3,1.6,5c0.3,7.1,0.8,14.4,1.2,21.5c0.4,6.3,0.8,12.8,1.1,19.2c0.2,4.1-1,7.8-3.4,10.4c-2.3,2.5-5.5,3.9-9.1,4
			c-7.6,0.2-13.2-5.3-13.7-13.5c-0.8-13.8-1.6-28-2.8-42.1c-0.2-2.2,0.1-3.6,0.8-4.3c0.5-0.5,1.4-0.8,2.7-0.8c0.4,0,0.8,0,1.3,0.1
			c1.9,0.2,3.9,0.1,5.9,0.1c1.6,0,3.3-0.1,4.9,0C105.8,10.4,107.5,10.5,109.3,10.2L109.3,10.2z M76.4,23.6
			c-0.7,11.7-1.3,22.2-2,32.7c-0.6,8.9-6.4,14.6-14.3,14.1c-7.9-0.5-12.9-6.6-12.4-15.1c0.7-12.4,1.7-25.8,3.1-42.1
			c0.1-0.9,1.8-2.5,2.8-2.7c1.5-0.2,3-0.2,4.4-0.2c1,0,2,0,2.9,0c1,0,2,0.1,3,0.1c6.7,0,10.1,0,11.5,1.6
			C77,13.5,76.8,16.8,76.4,23.6L76.4,23.6z M36.7,107.7c0-1.8,0.2-2.8,0.8-3.4c0.6-0.6,1.6-0.8,3.1-0.8c5.3,0.2,10.6,0.1,16.2,0.1
			c2.1,0,4.3,0,6.5,0v51.5H37.2c0-0.2-0.1-0.3-0.1-0.5c-0.1-0.6-0.3-1.2-0.3-1.8c0-5.1,0-10.1,0-15.2
			C36.8,127.8,36.8,117.6,36.7,107.7L36.7,107.7z"/>
		<path d="M91.8,140.9c4.7,0.1,9.5,0.1,14.2,0.1c4.2,0,8.3,0,12.5,0c2.1,0,4.2,0,6.3,0c2.7,0,5.5,0,8.2-0.1c6.4-0.1,9.4-3.1,9.5-9.3
			c0.2-9.8,0.2-19.6,0-29.3c-0.1-6.1-3.1-9.2-9.1-9.3c-14.3-0.2-28.5-0.2-42.2,0c-5.8,0.1-8.8,3.3-8.9,9.3c-0.1,8.3-0.1,17.2,0,28.8
			C82.4,137.8,85.3,140.7,91.8,140.9z M132.2,127.3c0,1.2-0.2,2-0.7,2.5c-0.5,0.5-1.3,0.7-2.6,0.7c-12.1-0.1-22.8-0.1-32.7,0
			c-1.3,0-2.1-0.2-2.6-0.7c-0.5-0.5-0.7-1.3-0.7-2.5c0.1-6.4,0.1-13.2,0-20.8c0-1.1,0.2-1.9,0.6-2.3c0.4-0.4,1.1-0.6,2.2-0.6
			c0.1,0,0.2,0,0.2,0c4,0.1,8.1,0.1,12,0.1c1.6,0,3.2,0,4.9,0c1.6,0,3.2,0,4.7,0c3.7,0,7.4,0.1,11.2-0.1c1.5,0,2.4,0.2,2.9,0.7
			c0.5,0.5,0.7,1.4,0.7,2.7C132,112.8,132,119.1,132.2,127.3L132.2,127.3z"/>
	</g>
</g>
</svg>
