<?xml version="1.0" encoding="utf-8"?>
<!-- Generator: Adobe Illustrator 26.2.1, SVG Export Plug-In . SVG Version: 6.00 Build 0)  -->
<svg version="1.1" id="Layer_1" xmlns="http://www.w3.org/2000/svg" xmlns:xlink="http://www.w3.org/1999/xlink" x="0px" y="0px"
	 viewBox="0 0 82.5 59" style="enable-background:new 0 0 82.5 59;" xml:space="preserve">
<style type="text/css">
	.st0{fill:#FF0000;}
</style>
<g id="a">
</g>
<g id="b">
	<g id="c">
		<g id="d">
			<path class="st0" d="M76.9,5.6V0H5.5v44h0v0.4c0,2.8-2.5,5-5.5,5v4h11.1V59h71.4V5.6H76.9z M7.9,49.4c1-1.4,1.6-3.2,1.6-5h0V4
				h63.4v39.3c0,3.4-2.7,6.1-6.1,6.1C66.8,49.4,7.9,49.4,7.9,49.4z M78.5,55H15.1v-1.6H67c5.5,0,9.9-4.5,9.9-10V9.6h1.6L78.5,55
				L78.5,55z"/>
			<circle class="st0" cx="17.3" cy="20.9" r="2.3"/>
			<circle class="st0" cx="25.3" cy="20.9" r="2.3"/>
			<path class="st0" d="M33.3,18.6c-1.3,0-2.3,1-2.3,2.3s1,2.3,2.3,2.3c1.3,0,2.3-1,2.3-2.3S34.5,18.6,33.3,18.6z"/>
			<circle class="st0" cx="41.2" cy="20.9" r="2.3"/>
			<circle class="st0" cx="49.2" cy="20.9" r="2.3"/>
			<circle class="st0" cx="57.1" cy="20.9" r="2.3"/>
			<circle class="st0" cx="65.1" cy="20.9" r="2.3"/>
			<path class="st0" d="M17.3,26.1c-1.3,0-2.3,1-2.3,2.3s1,2.3,2.3,2.3s2.3-1,2.3-2.3S18.6,26.1,17.3,26.1z"/>
			<path class="st0" d="M25.3,26.1c-1.3,0-2.3,1-2.3,2.3s1,2.3,2.3,2.3s2.3-1,2.3-2.3S26.6,26.1,25.3,26.1z"/>
			<path class="st0" d="M33.3,26.1c-1.3,0-2.3,1-2.3,2.3s1,2.3,2.3,2.3c1.3,0,2.3-1,2.3-2.3S34.5,26.1,33.3,26.1z"/>
			<path class="st0" d="M41.2,26.1c-1.3,0-2.3,1-2.3,2.3s1,2.3,2.3,2.3s2.3-1,2.3-2.3S42.5,26.1,41.2,26.1z"/>
			<path class="st0" d="M49.2,26.1c-1.3,0-2.3,1-2.3,2.3s1,2.3,2.3,2.3s2.3-1,2.3-2.3S50.5,26.1,49.2,26.1z"/>
			<path class="st0" d="M57.1,26.1c-1.3,0-2.3,1-2.3,2.3s1,2.3,2.3,2.3s2.3-1,2.3-2.3S58.4,26.1,57.1,26.1z"/>
			<path class="st0" d="M65.1,30.7c1.3,0,2.3-1,2.3-2.3s-1-2.3-2.3-2.3s-2.3,1-2.3,2.3S63.8,30.7,65.1,30.7z"/>
			<circle class="st0" cx="17.3" cy="35.9" r="2.3"/>
			<circle class="st0" cx="25.3" cy="35.9" r="2.3"/>
			<path class="st0" d="M33.3,33.6c-1.3,0-2.3,1-2.3,2.3s1,2.3,2.3,2.3c1.3,0,2.3-1,2.3-2.3S34.5,33.6,33.3,33.6z"/>
			<circle class="st0" cx="41.2" cy="35.9" r="2.3"/>
			<circle class="st0" cx="49.2" cy="35.9" r="2.3"/>
			<circle class="st0" cx="57.1" cy="35.9" r="2.3"/>
			<circle class="st0" cx="65.1" cy="35.9" r="2.3"/>
			<circle class="st0" cx="17.3" cy="43.5" r="2.3"/>
			<circle class="st0" cx="25.3" cy="43.5" r="2.3"/>
			<path class="st0" d="M33.3,41.1c-1.3,0-2.3,1-2.3,2.3s1,2.3,2.3,2.3c1.3,0,2.3-1,2.3-2.3S34.5,41.1,33.3,41.1z"/>
			<circle class="st0" cx="41.2" cy="43.5" r="2.3"/>
			<circle class="st0" cx="49.2" cy="43.5" r="2.3"/>
			<circle class="st0" cx="57.1" cy="43.5" r="2.3"/>
			<circle class="st0" cx="65.1" cy="43.5" r="2.3"/>
			<polygon class="st0" points="27.3,12.4 27.1,12.8 27,12.4 25.6,8.6 23.5,8.6 23.5,14.3 24.9,14.3 24.9,10.1 25.1,10.7 26.5,14.3 
				27.8,14.3 29.2,10.7 29.4,10.1 29.4,14.3 30.8,14.3 30.8,8.6 28.7,8.6 			"/>
			<path class="st0" d="M37.4,9.2c-0.3-0.2-0.7-0.4-1.1-0.5c-0.4-0.1-0.9-0.2-1.3-0.2s-0.9,0.1-1.3,0.2c-0.4,0.1-0.8,0.3-1.1,0.5
				c-0.3,0.2-0.6,0.6-0.7,0.9c-0.2,0.4-0.3,0.8-0.3,1.3c0,0.5,0.1,1,0.3,1.3c0.2,0.4,0.4,0.7,0.7,0.9c0.3,0.2,0.7,0.4,1.1,0.5
				s0.9,0.2,1.3,0.2s0.9-0.1,1.3-0.2c0.4-0.1,0.8-0.3,1.1-0.5c0.3-0.2,0.6-0.6,0.7-0.9c0.2-0.4,0.3-0.8,0.3-1.3c0-0.5-0.1-1-0.3-1.3
				C38,9.7,37.7,9.4,37.4,9.2z M36.8,12.2c-0.1,0.2-0.2,0.4-0.4,0.5c-0.2,0.1-0.4,0.2-0.6,0.3s-0.5,0.1-0.8,0.1
				c-0.3,0-0.6,0-0.8-0.1c-0.2-0.1-0.5-0.2-0.6-0.3c-0.2-0.1-0.3-0.3-0.4-0.5S33,11.8,33,11.4s0.1-0.6,0.2-0.8s0.2-0.4,0.4-0.5
				c0.2-0.1,0.4-0.2,0.6-0.3c0.2-0.1,0.5-0.1,0.8-0.1c0.3,0,0.5,0,0.8,0.1c0.2,0.1,0.5,0.2,0.6,0.3c0.2,0.1,0.3,0.3,0.4,0.5
				c0.1,0.2,0.2,0.5,0.2,0.8S36.9,12,36.8,12.2L36.8,12.2z"/>
			<path class="st0" d="M44,12.8c0,0,0-0.1-0.1-0.1c0,0,0-0.1-0.1-0.1c0,0,0-0.1-0.1-0.1l-2.7-3.9h-1.9v5.7h1.4v-4.2
				c0,0,0,0.1,0.1,0.1c0,0,0,0.1,0.1,0.1s0,0.1,0.1,0.1l2.7,3.9h1.9V8.6H44L44,12.8L44,12.8z"/>
			<polygon class="st0" points="46.1,9.8 48.4,9.8 48.4,14.3 49.8,14.3 49.8,9.8 52.1,9.8 52.1,8.6 46.1,8.6 			"/>
			<polygon class="st0" points="57.5,14.3 59,14.3 59,8.6 57.5,8.6 57.5,10.8 54.3,10.8 54.3,8.6 52.8,8.6 52.8,14.3 54.3,14.3 
				54.3,12 57.5,12 			"/>
		</g>
	</g>
</g>
</svg>
